<svg width="22" height="22" viewBox="0 0 22 22" fill="none" xmlns="http://www.w3.org/2000/svg">
<path d="M8.24545 17.4167C8.36609 17.4174 8.48568 17.3943 8.59736 17.3487C8.70905 17.303 8.81063 17.2358 8.89628 17.1509L14.3963 11.6509C14.567 11.4791 14.6628 11.2468 14.6628 11.0046C14.6628 10.7624 14.567 10.5301 14.3963 10.3584L8.89628 4.85836C8.72092 4.70818 8.49535 4.62971 8.26465 4.63862C8.03395 4.64753 7.8151 4.74317 7.65185 4.90643C7.4886 5.06968 7.39296 5.28852 7.38405 5.51923C7.37513 5.74993 7.45361 5.9755 7.60378 6.15086L12.4529 11L7.60378 15.8492C7.47506 15.9769 7.38709 16.1398 7.35099 16.3175C7.31488 16.4951 7.33227 16.6795 7.40095 16.8473C7.46963 17.0151 7.58652 17.1587 7.73684 17.2601C7.88716 17.3614 8.06416 17.4159 8.24545 17.4167Z" fill="#0C0D0D"/>
</svg>
